# Blender 4.1.1
# www.blender.org
o Box
v -2.000000 0.000000 2.000000
v -2.000000 1.000000 2.000000
v -2.000000 0.000000 -2.000000
v -2.000000 1.000000 -2.000000
v 2.000000 0.000000 2.000000
v 2.000000 1.000000 2.000000
v 2.000000 0.000000 -2.000000
v 2.000000 1.000000 -2.000000
vn -1.0000 -0.0000 -0.0000
vn -0.0000 -0.0000 -1.0000
vn 1.0000 -0.0000 -0.0000
vn -0.0000 -0.0000 1.0000
vn -0.0000 1.0000 -0.0000
vt -1.007812 0.009375
vt -1.007812 1.009375
vt 2.992188 1.009375
vt 2.992188 0.009375
vt 2.992188 3.000000
vt -1.007812 3.000000
vt -1.007812 -1.000000
vt 2.992188 -1.000000
s 0
f 1/1/1 2/2/1 4/3/1 3/4/1
f 3/1/2 4/2/2 8/3/2 7/4/2
f 7/4/3 8/3/3 6/2/3 5/1/3
f 5/4/4 6/3/4 2/2/4 1/1/4
f 8/5/5 4/6/5 2/7/5 6/8/5
