# Blender 4.1.1
# www.blender.org
o Kicker
v -1.000000 0.000000 1.000000
v -1.000000 0.500000 1.000000
v -1.000000 0.000000 -1.000000
v -1.000000 0.500000 -1.000000
v 1.000000 0.000000 1.000000
v 1.000000 0.500000 1.000000
v 1.000000 0.000000 -1.000000
v 1.000000 0.500000 -1.000000
v -1.000000 0.000000 2.000000
v -1.000000 0.000000 -2.000000
v 1.000000 0.000000 -2.000000
v 1.000000 0.000000 2.000000
vn -1.0000 -0.0000 -0.0000
vn 1.0000 -0.0000 -0.0000
vn -0.0000 1.0000 -0.0000
vn -0.0000 0.8944 0.4472
vn -0.0000 0.8944 -0.4472
vt -0.500000 0.259259
vt -0.500000 0.759259
vt 1.500000 0.759259
vt 1.500000 0.259259
vt -1.500000 0.259259
vt 2.500000 0.259259
vt 1.500000 1.500000
vt -0.500000 1.500000
vt -0.500000 -0.500000
vt 1.500000 -0.500000
vt -0.500000 -1.500000
vt 1.500000 -1.500000
vt 1.500000 2.500000
vt -0.500000 2.500000
s 0
f 1/1/1 2/2/1 4/3/1 3/4/1
f 2/2/1 1/1/1 9/5/1
f 7/4/2 8/3/2 6/2/2 5/1/2
f 3/4/1 4/3/1 10/6/1
f 8/7/3 4/8/3 2/9/3 6/10/3
f 8/3/2 7/4/2 11/6/2
f 6/10/4 2/9/4 9/11/4 12/12/4
f 5/1/2 6/2/2 12/5/2
f 4/8/5 8/7/5 11/13/5 10/14/5
