# Blender 4.1.1
# www.blender.org
o Pipe_Straight_Top_Col
v 8.000000 3.159874 -2.400000
v 8.000000 3.159874 -0.800000
v 8.000000 3.159874 0.800000
v 8.000000 3.159874 2.400000
v 8.000000 3.159874 -4.000000
v 8.000000 3.159874 4.000000
v 8.000000 8.731196 -2.400000
v 8.000000 8.731196 -0.800000
v 8.000000 8.731196 0.800000
v 8.000000 8.731196 2.400000
v 8.000000 8.731196 -4.000000
v 8.000000 8.731196 4.000000
v 8.000000 7.338366 -4.000000
v 8.000000 5.945535 -4.000000
v 8.000000 4.552704 -4.000000
v 8.000000 4.552704 -2.400000
v 8.000000 5.945535 -2.400000
v 8.000000 7.338366 -2.400000
v 8.000000 7.338366 0.800000
v 8.000000 5.945535 0.800000
v 8.000000 4.552704 0.800000
v 8.000000 4.552704 2.400000
v 8.000000 5.945535 2.400000
v 8.000000 7.338366 2.400000
v 8.000000 4.552704 -0.800000
v 8.000000 5.945535 -0.800000
v 8.000000 7.338366 -0.800000
v 8.000000 4.552704 4.000000
v 8.000000 5.945535 4.000000
v 8.000000 7.338366 4.000000
vn -1.0000 -0.0000 -0.0000
vt 1.000000 0.400000
vt 1.000000 0.500000
vt 1.000000 0.100000
vt 1.000000 0.200000
vt 1.000000 0.300000
vt 1.000000 0.400000
vt 1.000000 0.000000
vt 1.000000 0.100000
vt 1.000000 0.200000
s 1
f 18/1/1 11/2/1 13/2/1
f 24/3/1 9/4/1 19/4/1
f 27/5/1 7/6/1 18/1/1
f 30/7/1 10/8/1 24/3/1
f 19/4/1 8/5/1 27/5/1
f 3/4/1 25/5/1 2/5/1
f 25/5/1 20/9/1 26/5/1
f 26/5/1 19/4/1 27/5/1
f 6/7/1 22/8/1 4/8/1
f 28/7/1 23/3/1 22/8/1
f 29/7/1 24/3/1 23/3/1
f 2/5/1 16/6/1 1/6/1
f 25/5/1 17/1/1 16/6/1
f 26/5/1 18/1/1 17/1/1
f 4/8/1 21/9/1 3/4/1
f 22/8/1 20/9/1 21/9/1
f 23/3/1 19/4/1 20/9/1
f 1/6/1 15/2/1 5/2/1
f 16/6/1 14/2/1 15/2/1
f 17/1/1 13/2/1 14/2/1
f 18/1/1 7/6/1 11/2/1
f 24/3/1 10/8/1 9/4/1
f 27/5/1 8/5/1 7/6/1
f 30/7/1 12/7/1 10/8/1
f 19/4/1 9/4/1 8/5/1
f 3/4/1 21/9/1 25/5/1
f 25/5/1 21/9/1 20/9/1
f 26/5/1 20/9/1 19/4/1
f 6/7/1 28/7/1 22/8/1
f 28/7/1 29/7/1 23/3/1
f 29/7/1 30/7/1 24/3/1
f 2/5/1 25/5/1 16/6/1
f 25/5/1 26/5/1 17/1/1
f 26/5/1 27/5/1 18/1/1
f 4/8/1 22/8/1 21/9/1
f 22/8/1 23/3/1 20/9/1
f 23/3/1 24/3/1 19/4/1
f 1/6/1 16/6/1 15/2/1
f 16/6/1 17/1/1 14/2/1
f 17/1/1 18/1/1 13/2/1
