# Blender 4.1.1
# www.blender.org
o Pipe_Curve
v 7.878462 3.159874 2.610774
v 7.517543 3.159874 1.263806
v 6.928209 3.159874 -0.000025
v 6.128367 3.159874 -1.142319
v 5.142319 3.159874 -2.128367
v 4.000025 3.159874 -2.928209
v 2.736194 3.159874 -3.517543
v 1.389226 3.159874 -3.878462
v 0.000000 3.159874 -4.000000
v 8.000000 3.159874 4.000000
v 5.188150 0.000000 4.122764
v 8.000000 2.811850 4.000000
v 5.676423 0.042718 4.101446
v 6.149859 0.169575 4.080776
v 6.594075 0.376716 4.061382
v 6.995573 0.657848 4.043853
v 7.342152 1.004428 4.028721
v 7.623283 1.405925 4.016447
v 7.830425 1.850141 4.007403
v 7.957282 2.323577 4.001865
v 0.000000 0.000000 -1.177410
v 0.000000 2.811850 -4.000000
v 0.000000 0.042718 -1.667548
v 0.000000 0.169575 -2.142793
v 0.000000 0.376716 -2.588706
v 0.000000 0.657848 -2.991736
v 0.000000 1.004427 -3.339639
v 0.000000 1.405925 -3.621845
v 0.000000 1.850140 -3.829777
v 0.000000 2.323577 -3.957118
v 1.389226 2.811850 -3.878462
v 0.899092 0.000000 -1.098752
v 1.381780 2.323577 -3.836233
v 1.359668 1.850141 -3.710826
v 1.323561 1.405925 -3.506052
v 1.274557 1.004428 -3.228134
v 1.214144 0.657848 -2.885516
v 1.144159 0.376716 -2.488608
v 1.066728 0.169575 -2.049469
v 0.984203 0.042718 -1.581444
v 2.736194 2.811850 -3.517543
v 1.770811 0.000000 -0.865176
v 2.721527 2.323577 -3.477247
v 2.677974 1.850141 -3.357586
v 2.606857 1.405925 -3.162193
v 2.510337 1.004428 -2.897007
v 2.391347 0.657848 -2.570085
v 2.253502 0.376716 -2.191360
v 2.100991 0.169575 -1.772339
v 1.938447 0.042718 -1.325754
v 4.000025 2.811850 -2.928209
v 2.588730 0.000000 -0.483774
v 3.978584 2.323577 -2.891073
v 3.914913 1.850141 -2.780792
v 3.810947 1.405925 -2.600718
v 3.669845 1.004428 -2.356320
v 3.495893 0.657848 -2.055027
v 3.294377 0.376716 -1.705992
v 3.071421 0.169575 -1.319820
v 2.833799 0.042718 -0.908246
v 5.142319 2.811850 -2.128367
v 3.327993 0.000000 0.033863
v 5.114755 2.323577 -2.095518
v 5.032902 1.850141 -1.997969
v 4.899245 1.405925 -1.838683
v 4.717847 1.004428 -1.622501
v 4.494219 0.657848 -1.355991
v 4.235156 0.376716 -1.047252
v 3.948529 0.169575 -0.705663
v 3.643047 0.042718 -0.341604
v 6.128367 2.811850 -1.142319
v 3.966137 0.000000 0.672007
v 6.095518 2.323577 -1.114755
v 5.997969 1.850141 -1.032902
v 5.838683 1.405925 -0.899245
v 5.622501 1.004428 -0.717847
v 5.355991 0.657848 -0.494219
v 5.047252 0.376716 -0.235156
v 4.705663 0.169575 0.051471
v 4.341604 0.042718 0.356953
v 6.928209 2.811850 -0.000025
v 4.483774 0.000000 1.411270
v 6.891073 2.323577 0.021416
v 6.780792 1.850141 0.085087
v 6.600718 1.405925 0.189053
v 6.356320 1.004428 0.330155
v 6.055027 0.657848 0.504107
v 5.705992 0.376716 0.705623
v 5.319820 0.169575 0.928579
v 4.908246 0.042718 1.166201
v 7.517543 2.811850 1.263806
v 4.865176 0.000000 2.229189
v 7.477247 2.323577 1.278473
v 7.357586 1.850141 1.322026
v 7.162193 1.405925 1.393143
v 6.897007 1.004428 1.489663
v 6.570085 0.657848 1.608653
v 6.191360 0.376716 1.746498
v 5.772339 0.169575 1.899009
v 5.325754 0.042718 2.061553
v 7.878462 2.811850 2.610774
v 5.098752 0.000000 3.100908
v 7.836233 2.323577 2.618220
v 7.710826 1.850141 2.640332
v 7.506052 1.405925 2.676439
v 7.228134 1.004428 2.725443
v 6.885516 0.657848 2.785856
v 6.488608 0.376716 2.855841
v 6.049469 0.169575 2.933272
v 5.581444 0.042718 3.015797
vn -0.9848 -0.0000 0.1736
vn -0.9397 -0.0000 0.3420
vn -0.8660 -0.0000 0.5000
vn -0.7660 -0.0000 0.6428
vn -0.6428 -0.0000 0.7660
vn -0.5000 -0.0000 0.8660
vn -0.3420 -0.0000 0.9397
vn -0.1736 -0.0000 0.9848
vn -0.0872 -0.0000 0.9962
vn -0.9962 -0.0000 0.0872
vn -0.0868 0.9962 0.0076
vn -0.9952 0.0436 0.0871
vn -0.1753 0.9844 0.0153
vn -0.3429 0.9389 0.0300
vn -0.4999 0.8650 0.0437
vn -0.6418 0.7648 0.0561
vn -0.7641 0.6416 0.0668
vn -0.8633 0.4989 0.0755
vn -0.9364 0.3412 0.0819
vn -0.9811 0.1732 0.0858
vn -0.0076 0.9962 0.0868
vn -0.0871 0.0435 0.9953
vn -0.0155 0.9840 0.1777
vn -0.0302 0.9381 0.3450
vn -0.0439 0.8639 0.5017
vn -0.0563 0.7636 0.6432
vn -0.0669 0.6404 0.7651
vn -0.0756 0.4979 0.8639
vn -0.0819 0.3405 0.9367
vn -0.0858 0.1728 0.9812
vn -0.1735 0.0437 0.9839
vn -0.0151 0.9962 0.0855
vn -0.1710 0.1735 0.9699
vn -0.1632 0.3416 0.9256
vn -0.1505 0.4993 0.8533
vn -0.1332 0.6418 0.7552
vn -0.1119 0.7649 0.6344
vn -0.0872 0.8647 0.4946
vn -0.0599 0.9386 0.3399
vn -0.0309 0.9841 0.1750
vn -0.3417 0.0437 0.9388
vn -0.0297 0.9962 0.0816
vn -0.3368 0.1735 0.9254
vn -0.3214 0.3416 0.8832
vn -0.2963 0.4993 0.8142
vn -0.2623 0.6418 0.7206
vn -0.2203 0.7649 0.6054
vn -0.1718 0.8647 0.4719
vn -0.1180 0.9386 0.3243
vn -0.0608 0.9841 0.1670
vn -0.4995 0.0437 0.8652
vn -0.0434 0.9962 0.0752
vn -0.4924 0.1735 0.8529
vn -0.4699 0.3416 0.8139
vn -0.4332 0.4993 0.7503
vn -0.3834 0.6418 0.6641
vn -0.3221 0.7649 0.5579
vn -0.2511 0.8647 0.4349
vn -0.1726 0.9386 0.2989
vn -0.0888 0.9841 0.1539
vn -0.6422 0.0437 0.7653
vn -0.0558 0.9962 0.0665
vn -0.6330 0.1735 0.7544
vn -0.6041 0.3416 0.7200
vn -0.5569 0.4993 0.6637
vn -0.4929 0.6418 0.5874
vn -0.4141 0.7649 0.4935
vn -0.3228 0.8647 0.3847
vn -0.2219 0.9386 0.2644
vn -0.1142 0.9841 0.1361
vn -0.7653 0.0437 0.6422
vn -0.0665 0.9962 0.0558
vn -0.7544 0.1735 0.6330
vn -0.7200 0.3416 0.6041
vn -0.6637 0.4993 0.5569
vn -0.5874 0.6418 0.4929
vn -0.4935 0.7649 0.4141
vn -0.3847 0.8647 0.3228
vn -0.2644 0.9386 0.2219
vn -0.1361 0.9841 0.1142
vn -0.8652 0.0437 0.4995
vn -0.0752 0.9962 0.0434
vn -0.8529 0.1735 0.4924
vn -0.8139 0.3416 0.4699
vn -0.7503 0.4993 0.4332
vn -0.6641 0.6418 0.3834
vn -0.5579 0.7649 0.3221
vn -0.4349 0.8647 0.2511
vn -0.2989 0.9386 0.1726
vn -0.1539 0.9841 0.0888
vn -0.9388 0.0437 0.3417
vn -0.0816 0.9962 0.0297
vn -0.9254 0.1735 0.3368
vn -0.8832 0.3416 0.3214
vn -0.8142 0.4993 0.2963
vn -0.7206 0.6418 0.2623
vn -0.6054 0.7649 0.2203
vn -0.4719 0.8647 0.1718
vn -0.3243 0.9386 0.1180
vn -0.1670 0.9841 0.0608
vn -0.9839 0.0437 0.1735
vn -0.0855 0.9962 0.0151
vn -0.9699 0.1735 0.1710
vn -0.9256 0.3416 0.1632
vn -0.8533 0.4993 0.1505
vn -0.7552 0.6418 0.1332
vn -0.6344 0.7649 0.1119
vn -0.4946 0.8647 0.0872
vn -0.3399 0.9386 0.0599
vn -0.1750 0.9841 0.0309
vt 0.586827 0.992404
vt 0.500000 1.000000
vt 1.000000 0.500003
vt 0.992404 0.586827
vt 0.969846 0.671012
vt 0.933013 0.750002
vt 0.883023 0.821395
vt 0.821395 0.883023
vt 0.750002 0.933013
vt 0.671012 0.969846
vt 0.992384 0.586823
vt 0.999995 0.500001
vt 0.992324 0.586813
vt 0.999980 0.500001
vt 0.992227 0.586795
vt 0.999955 0.500000
vt 0.992095 0.586772
vt 0.999922 0.499998
vt 0.930345 0.575884
vt 0.937223 0.497260
vt 0.905538 0.571511
vt 0.912130 0.496164
vt 0.878092 0.566671
vt 0.884366 0.494952
vt 0.848840 0.561514
vt 0.854776 0.493660
vt 0.818672 0.556195
vt 0.824259 0.492327
vt 0.969827 0.671005
vt 0.969770 0.670984
vt 0.969678 0.670951
vt 0.969552 0.670905
vt 0.910630 0.649459
vt 0.886960 0.640844
vt 0.860771 0.631313
vt 0.832860 0.621154
vt 0.932995 0.749991
vt 0.932943 0.749961
vt 0.932742 0.749845
vt 0.878439 0.718494
vt 0.856624 0.705899
vt 0.832489 0.691964
vt 0.780236 0.661796
vt 0.804074 0.610677
vt 0.883007 0.821382
vt 0.882961 0.821343
vt 0.932858 0.749912
vt 0.882783 0.821193
vt 0.815453 0.764697
vt 0.794104 0.746783
vt 0.806765 0.677113
vt 0.747884 0.708000
vt 0.780236 0.661796
vt 0.821382 0.883007
vt 0.821280 0.882885
vt 0.882885 0.821279
vt 0.821193 0.882783
vt 0.834749 0.780889
vt 0.780889 0.834750
vt 0.764697 0.815453
vt 0.746783 0.794104
vt 0.771350 0.727691
vt 0.727691 0.771351
vt 0.749991 0.932995
vt 0.821343 0.882961
vt 0.749961 0.932943
vt 0.749845 0.932742
vt 0.718493 0.878439
vt 0.705899 0.856625
vt 0.691964 0.832489
vt 0.661795 0.780236
vt 0.708000 0.747884
vt 0.671005 0.969827
vt 0.670984 0.969771
vt 0.749912 0.932858
vt 0.670951 0.969678
vt 0.670905 0.969552
vt 0.649459 0.910630
vt 0.640844 0.886960
vt 0.631312 0.860771
vt 0.677112 0.806765
vt 0.621153 0.832860
vt 0.661796 0.780236
vt 0.586813 0.992324
vt 0.586795 0.992227
vt 0.586772 0.992095
vt 0.575884 0.930345
vt 0.571510 0.905538
vt 0.566671 0.878092
vt 0.561513 0.848840
vt 0.556193 0.818672
vt 0.610676 0.804074
vt 0.586823 0.992384
vt 0.500233 0.999980
vt 0.500924 0.999919
vt 0.502052 0.999821
vt 0.503583 0.999687
vt 0.500000 0.936983
vt 0.500000 0.911794
vt 0.500000 0.883925
vt 0.500000 0.854222
vt 0.708000 0.747884
vt 0.500000 0.823588
s 1
f 31/1/31 9/2/9 22/2/22
f 12/3/12 1/4/1 101/4/101
f 101/4/101 2/5/2 91/5/91
f 91/5/91 3/6/3 81/6/81
f 81/6/81 4/7/4 71/7/71
f 71/7/71 5/8/5 61/8/61
f 61/8/61 6/9/6 51/9/51
f 51/9/51 7/10/7 41/10/41
f 41/10/41 8/1/8 31/1/31
f 12/3/12 103/11/103 20/12/20
f 20/12/20 104/13/104 19/14/19
f 19/14/19 105/15/105 18/16/18
f 18/16/18 106/17/106 17/18/17
f 17/18/17 107/19/107 16/20/16
f 16/20/16 108/21/108 15/22/15
f 15/22/15 109/23/109 14/24/14
f 14/24/14 110/25/110 13/26/13
f 13/26/13 102/27/102 11/28/11
f 91/5/91 103/11/103 101/4/101
f 93/29/93 104/13/104 103/11/103
f 94/30/94 105/15/105 104/13/104
f 95/31/95 106/17/106 105/15/105
f 96/32/96 107/19/107 106/17/106
f 97/33/97 108/21/108 107/19/107
f 98/34/98 109/23/109 108/21/108
f 99/35/99 110/25/110 109/23/109
f 100/36/100 102/27/102 110/25/110
f 81/6/81 93/29/93 91/5/91
f 83/37/83 94/30/94 93/29/93
f 84/38/84 95/31/95 94/30/94
f 95/31/95 86/39/86 96/32/96
f 96/32/96 87/40/87 97/33/97
f 97/33/97 88/41/88 98/34/98
f 88/41/88 99/35/99 98/34/98
f 89/42/89 100/36/100 99/35/99
f 100/36/100 82/43/82 92/44/92
f 71/7/71 83/37/83 81/6/81
f 73/45/73 84/38/84 83/37/83
f 74/46/74 85/47/85 84/38/84
f 85/47/85 76/48/76 86/39/86
f 76/48/76 87/40/87 86/39/86
f 87/40/87 78/49/78 88/41/88
f 78/49/78 89/42/89 88/41/88
f 79/50/79 90/51/90 89/42/89
f 90/51/90 72/52/72 82/53/82
f 61/8/61 73/45/73 71/7/71
f 63/54/63 74/46/74 73/45/73
f 74/46/74 65/55/65 75/56/75
f 75/56/75 66/57/66 76/48/76
f 66/57/66 77/58/77 76/48/76
f 67/59/67 78/49/78 77/58/77
f 68/60/68 79/50/79 78/49/78
f 69/61/69 80/62/80 79/50/79
f 70/63/70 72/52/72 80/62/80
f 51/9/51 63/54/63 61/8/61
f 53/64/53 64/65/64 63/54/63
f 54/66/54 65/55/65 64/65/64
f 65/55/65 56/67/56 66/57/66
f 56/67/56 67/59/67 66/57/66
f 57/68/57 68/60/68 67/59/67
f 58/69/58 69/61/69 68/60/68
f 59/70/59 70/63/70 69/61/69
f 70/63/70 52/71/52 62/72/62
f 51/9/51 43/73/43 53/64/53
f 43/73/43 54/66/54 53/64/53
f 44/74/44 55/75/55 54/66/54
f 45/76/45 56/67/56 55/75/55
f 46/77/46 57/68/57 56/67/56
f 47/78/47 58/69/58 57/68/57
f 48/79/48 59/70/59 58/69/58
f 49/80/49 60/81/60 59/70/59
f 50/82/50 52/83/52 60/81/60
f 31/1/31 43/73/43 41/10/41
f 43/73/43 34/84/34 44/74/44
f 44/74/44 35/85/35 45/76/45
f 45/76/45 36/86/36 46/77/46
f 46/77/46 37/87/37 47/78/47
f 47/78/47 38/88/38 48/79/48
f 48/79/48 39/89/39 49/80/49
f 49/80/49 40/90/40 50/82/50
f 50/82/50 32/91/32 42/92/42
f 22/2/22 33/93/33 31/1/31
f 30/94/30 34/84/34 33/93/33
f 29/95/29 35/85/35 34/84/34
f 28/96/28 36/86/36 35/85/35
f 27/97/27 37/87/37 36/86/36
f 26/98/26 38/88/38 37/87/37
f 25/99/25 39/89/39 38/88/38
f 24/100/24 40/90/40 39/89/39
f 23/101/23 32/91/32 40/90/40
f 31/1/31 8/1/8 9/2/9
f 12/3/12 10/3/10 1/4/1
f 101/4/101 1/4/1 2/5/2
f 91/5/91 2/5/2 3/6/3
f 81/6/81 3/6/3 4/7/4
f 71/7/71 4/7/4 5/8/5
f 61/8/61 5/8/5 6/9/6
f 51/9/51 6/9/6 7/10/7
f 41/10/41 7/10/7 8/1/8
f 12/3/12 101/4/101 103/11/103
f 20/12/20 103/11/103 104/13/104
f 19/14/19 104/13/104 105/15/105
f 18/16/18 105/15/105 106/17/106
f 17/18/17 106/17/106 107/19/107
f 16/20/16 107/19/107 108/21/108
f 15/22/15 108/21/108 109/23/109
f 14/24/14 109/23/109 110/25/110
f 13/26/13 110/25/110 102/27/102
f 91/5/91 93/29/93 103/11/103
f 93/29/93 94/30/94 104/13/104
f 94/30/94 95/31/95 105/15/105
f 95/31/95 96/32/96 106/17/106
f 96/32/96 97/33/97 107/19/107
f 97/33/97 98/34/98 108/21/108
f 98/34/98 99/35/99 109/23/109
f 99/35/99 100/36/100 110/25/110
f 100/36/100 92/44/92 102/27/102
f 81/6/81 83/37/83 93/29/93
f 83/37/83 84/38/84 94/30/94
f 84/38/84 85/47/85 95/31/95
f 95/31/95 85/47/85 86/39/86
f 96/32/96 86/39/86 87/40/87
f 97/33/97 87/40/87 88/41/88
f 88/41/88 89/42/89 99/35/99
f 89/42/89 90/51/90 100/36/100
f 100/36/100 90/51/90 82/43/82
f 71/7/71 73/45/73 83/37/83
f 73/45/73 74/46/74 84/38/84
f 74/46/74 75/56/75 85/47/85
f 85/47/85 75/56/75 76/48/76
f 76/48/76 77/58/77 87/40/87
f 87/40/87 77/58/77 78/49/78
f 78/49/78 79/50/79 89/42/89
f 79/50/79 80/62/80 90/51/90
f 90/51/90 80/62/80 72/52/72
f 61/8/61 63/54/63 73/45/73
f 63/54/63 64/65/64 74/46/74
f 74/46/74 64/65/64 65/55/65
f 75/56/75 65/55/65 66/57/66
f 66/57/66 67/59/67 77/58/77
f 67/59/67 68/60/68 78/49/78
f 68/60/68 69/61/69 79/50/79
f 69/61/69 70/63/70 80/62/80
f 70/63/70 62/102/62 72/52/72
f 51/9/51 53/64/53 63/54/63
f 53/64/53 54/66/54 64/65/64
f 54/66/54 55/75/55 65/55/65
f 65/55/65 55/75/55 56/67/56
f 56/67/56 57/68/57 67/59/67
f 57/68/57 58/69/58 68/60/68
f 58/69/58 59/70/59 69/61/69
f 59/70/59 60/81/60 70/63/70
f 70/63/70 60/81/60 52/71/52
f 51/9/51 41/10/41 43/73/43
f 43/73/43 44/74/44 54/66/54
f 44/74/44 45/76/45 55/75/55
f 45/76/45 46/77/46 56/67/56
f 46/77/46 47/78/47 57/68/57
f 47/78/47 48/79/48 58/69/58
f 48/79/48 49/80/49 59/70/59
f 49/80/49 50/82/50 60/81/60
f 50/82/50 42/92/42 52/83/52
f 31/1/31 33/93/33 43/73/43
f 43/73/43 33/93/33 34/84/34
f 44/74/44 34/84/34 35/85/35
f 45/76/45 35/85/35 36/86/36
f 46/77/46 36/86/36 37/87/37
f 47/78/47 37/87/37 38/88/38
f 48/79/48 38/88/38 39/89/39
f 49/80/49 39/89/39 40/90/40
f 50/82/50 40/90/40 32/91/32
f 22/2/22 30/94/30 33/93/33
f 30/94/30 29/95/29 34/84/34
f 29/95/29 28/96/28 35/85/35
f 28/96/28 27/97/27 36/86/36
f 27/97/27 26/98/26 37/87/37
f 26/98/26 25/99/25 38/88/38
f 25/99/25 24/100/24 39/89/39
f 24/100/24 23/101/23 40/90/40
f 23/101/23 21/103/21 32/91/32
